<svg version="1.1" xmlns="http://www.w3.org/2000/svg" width="225px" height="225px" transform="rotate(0) scale(1, 1)">
<path d="M0 0 C2.9375 2.1875 2.9375 2.1875 5 4 C6.3303125 2.824375 6.3303125 2.824375 7.6875 1.625 C12.10252597 -2.00787684 15.87053631 -3.51457114 21.7265625 -3.296875 C31.37638064 -2.03676129 39.07413961 3.40878758 47.07421875 8.515625 C55.52442725 13.89135677 62.2825761 17.68300736 72.50390625 17.6015625 C75.11888078 17.19862845 75.11888078 17.19862845 76.859375 15.1640625 C78.44210737 12.16120725 77.8034208 10.21368319 77 7 C79.90215168 7.30022259 80.85737849 7.83770656 82.8125 10.0625 C84.38874859 13.96164124 84.22220144 17.06265486 83 21 C79.93719211 26.30886702 76.26827152 28.45459013 70.46484375 30.30078125 C50.27879638 34.37440299 32.47282897 27.85436377 14.79003906 18.57104492 C9.58770068 15.84097268 9.58770068 15.84097268 3.88671875 14.9140625 C-0.18951006 16.44747469 -4.04921781 18.29367117 -7.9375 20.25 C-24.70323223 28.44903847 -42.52489808 34.31095204 -61.359375 30.28125 C-66.19520182 28.46415144 -69.74150469 26.09939732 -73 22 C-74.23285501 18.30143498 -74.58026438 14.84521861 -74 11 C-72.125 8.5 -72.125 8.5 -70 7 C-69.34 7 -68.68 7 -68 7 C-68.09765625 9.01822917 -68.1953125 11.03645833 -68.29296875 13.0546875 C-68.19628906 13.69664062 -68.09960938 14.33859375 -68 15 C-63.20326342 18.19782438 -58.60181506 17.81388459 -53 17 C-44.66182455 13.94362412 -37.41129992 9.02533106 -30.05493164 4.14697266 C-20.243022 -2.23708053 -10.93245229 -5.66867896 0 0 Z " fill="#ffffff" transform="translate(106,137)"/>
<path d="M0 0 C9.10959165 -0.02312545 18.21917326 -0.04091612 27.3287878 -0.05181217 C31.55831371 -0.05704056 35.7878196 -0.0641374 40.01733398 -0.07543945 C44.09568543 -0.08626991 48.17401757 -0.09227717 52.25238228 -0.09487724 C53.81177639 -0.09673121 55.3711694 -0.10035127 56.93055534 -0.10573006 C59.10729162 -0.11294262 61.28394714 -0.11399085 63.46069336 -0.11352539 C65.32267616 -0.11685631 65.32267616 -0.11685631 67.22227478 -0.12025452 C70 0 70 0 71 1 C71.04080783 2.99958364 71.04254356 5.00045254 71 7 C72.0828125 7.12375 72.0828125 7.12375 73.1875 7.25 C77.23706371 8.32988366 79.80775164 10.41033552 82.3125 13.75 C83.88363597 18.89189954 83.71193168 22.65241503 81.25 27.3125 C76.63723615 32.82219015 76.63723615 32.82219015 72.23046875 33.30078125 C70.72419922 33.30658203 70.72419922 33.30658203 69.1875 33.3125 C63.74394009 33.62299432 61.354806 34.67605449 57.58203125 38.50390625 C50.69684482 45.01508255 40.05722567 44.34877573 31.2421875 44.2109375 C20.60013959 43.83103187 13.50137282 39.70598068 6.25 32.125 C3.87597877 28.49556415 2.78633295 24.46789056 1.6875 20.3125 C1.42984863 19.36044678 1.42984863 19.36044678 1.16699219 18.38916016 C0.15058386 14.12300371 -0.07719941 10.11053558 -0.04370117 5.72338867 C-0.03739182 4.64957443 -0.03108246 3.57576019 -0.02458191 2.46940613 C-0.01646988 1.65450211 -0.00835785 0.83959808 0 0 Z M70 13 C69.49528803 14.76949612 68.99639315 16.54065223 68.5 18.3125 C68.2215625 19.29863281 67.943125 20.28476563 67.65625 21.30078125 C66.88187804 24.02287203 66.88187804 24.02287203 67 27 C70.43230448 26.73606499 70.43230448 26.73606499 74 26 C76.31282587 22.53076119 76.42478586 21.07794425 76 17 C74.14657225 14.44050454 73.06243607 14.02081202 70 13 Z " fill="#ffffff" transform="translate(118,72)"/>
<path d="M0 0 C23.1 0 46.2 0 70 0 C73.06661015 6.1332203 70.154787 16.39531568 68.5 22.75 C65.94123933 30.31543319 61.45774554 36.28344843 54.58984375 40.46875 C44.07074524 45.38585782 30.15210114 45.88685066 19.19140625 41.9921875 C9.890553 37.78110599 9.890553 37.78110599 8 34 C5.3827022 33.68270973 5.3827022 33.68270973 2.3125 33.625 C-2.87783358 33.2551425 -6.14265263 32.75844103 -10 29 C-12.94633489 23.96271776 -13.38490428 20.64614821 -12 15 C-11.04176301 11.64617053 -9.45352855 10.49678988 -6.5625 8.75 C-3 7 -3 7 0 7 C0 4.69 0 2.38 0 0 Z M-1 13 C-4.75041474 16.16661964 -4.75041474 16.16661964 -6.5625 20.5625 C-5.80167555 23.85940593 -4.75181556 25.04476263 -2 27 C1.167832 27.33448259 1.167832 27.33448259 4 27 C3.690625 26.154375 3.38125 25.30875 3.0625 24.4375 C2 21 2 21 1.5 17.1875 C1.335 16.135625 1.17 15.08375 1 14 C0.34 13.67 -0.32 13.34 -1 13 Z " fill="#ffffff" transform="translate(37,72)"/>
<path d="M0 0 C9.10959165 -0.02312545 18.21917326 -0.04091612 27.3287878 -0.05181217 C31.55831371 -0.05704056 35.7878196 -0.0641374 40.01733398 -0.07543945 C44.09568543 -0.08626991 48.17401757 -0.09227717 52.25238228 -0.09487724 C53.81177639 -0.09673121 55.3711694 -0.10035127 56.93055534 -0.10573006 C59.10729162 -0.11294262 61.28394714 -0.11399085 63.46069336 -0.11352539 C65.32267616 -0.11685631 65.32267616 -0.11685631 67.22227478 -0.12025452 C70 0 70 0 71 1 C71.04080783 2.99958364 71.04254356 5.00045254 71 7 C72.0828125 7.12375 72.0828125 7.12375 73.1875 7.25 C77.23706371 8.32988366 79.80775164 10.41033552 82.3125 13.75 C83.36579094 17.19713398 83.11983573 20.40492797 83 24 C82.34 24 81.68 24 81 24 C80.505 20.04 80.505 20.04 80 16 C79.34 16 78.68 16 78 16 C77.67 17.98 77.34 19.96 77 22 C76.67 22 76.34 22 76 22 C75.505 18.535 75.505 18.535 75 15 C73.68 14.67 72.36 14.34 71 14 C71 13.34 71 12.68 71 12 C72.98 12 74.96 12 77 12 C75.865625 11.649375 74.73125 11.29875 73.5625 10.9375 C71.62890625 10.33984375 71.62890625 10.33984375 70 9 C69.505 5.535 69.505 5.535 69 2 C46.89 2 24.78 2 2 2 C2.66 7.94 3.32 13.88 4 20 C3.34 20.66 2.68 21.32 2 22 C0.63642037 16.49698223 -0.12547004 11.32367083 -0.0625 5.640625 C-0.04896484 4.04782715 -0.04896484 4.04782715 -0.03515625 2.42285156 C-0.02355469 1.62331055 -0.01195313 0.82376953 0 0 Z " fill="#ffffff" transform="translate(118,72)"/>
<path d="M0 0 C-0.31453125 0.556875 -0.6290625 1.11375 -0.953125 1.6875 C-2.08535195 4.18853865 -2.40246406 6.28590984 -2.75 9 C-3.4784512 12.8342509 -3.75135727 13.76292205 -6.6875 16.5625 C-12.36073392 19.02446944 -16.98511979 19.32033956 -23 18 C-23.99 15.03 -24.98 12.06 -26 9 C-22.535 10.485 -22.535 10.485 -19 12 C-19 12.66 -19 13.32 -19 14 C-18.34 14 -17.68 14 -17 14 C-16.938125 13.13375 -16.87625 12.2675 -16.8125 11.375 C-15.78674125 7.11415597 -14.08112371 5.08112371 -11 2 C-7.29464947 -0.09019773 -4.21050044 -0.19583723 0 0 Z " fill="#ffffff" transform="translate(167,49)"/>
<path d="M0 0 C0.515625 0.2475 1.03125 0.495 1.5625 0.75 C1.5625 2.73 1.5625 4.71 1.5625 6.75 C-0.0875 7.41 -1.7375 8.07 -3.4375 8.75 C-4.60758745 13.36009488 -4.60758745 13.36009488 -3.3125 17.6875 C-0.90170662 19.05361625 0.83544446 18.97111261 3.5625 18.75 C3.2325 18.04875 2.9025 17.3475 2.5625 16.625 C1.47205438 13.48996884 1.40927357 11.04436818 1.5625 7.75 C2.2225 7.75 2.8825 7.75 3.5625 7.75 C3.76166016 8.65492187 3.76166016 8.65492187 3.96484375 9.578125 C4.14144531 10.37734375 4.31804688 11.1765625 4.5 12 C4.67402344 12.78890625 4.84804688 13.5778125 5.02734375 14.390625 C5.510056 16.51878703 6.02413178 18.63532842 6.5625 20.75 C4.2525 21.08 1.9425 21.41 -0.4375 21.75 C2.46342502 23.68395001 3.45924737 24.05131941 6.75 24.375 C8.008125 24.49875 9.26625 24.6225 10.5625 24.75 C8.5625 26.75 8.5625 26.75 5.953125 26.8671875 C-5.05703508 26.0181453 -5.05703508 26.0181453 -9.4375 21.75 C-12.38383489 16.71271776 -12.82240428 13.39614821 -11.4375 7.75 C-10.49086878 4.43679074 -8.89463143 3.21665949 -6.0625 1.4375 C-2.4375 -0.25 -2.4375 -0.25 0 0 Z " fill="#ffffff" transform="translate(36.4375,79.25)"/>
<path d="M0 0 C23.1 0 46.2 0 70 0 C73.19555931 6.39111861 69.99246643 17.35844525 68 24 C67.67 24 67.34 24 67 24 C67.13894148 20.89548451 67.287343 17.79149165 67.4375 14.6875 C67.47681641 13.80642578 67.51613281 12.92535156 67.55664062 12.01757812 C67.59853516 11.17001953 67.64042969 10.32246094 67.68359375 9.44921875 C67.72025146 8.66893311 67.75690918 7.88864746 67.79467773 7.0847168 C68 5 68 5 69 2 C46.56 2 24.12 2 1 2 C1 3.65 1 5.3 1 7 C0.67 7 0.34 7 0 7 C0 4.69 0 2.38 0 0 Z " fill="#ffffff" transform="translate(37,72)"/>
<path d="M0 0 C2.97476813 1.87880093 4.00534941 3.25609071 5.375 6.5 C6.00186567 12.55970149 6.00186567 12.55970149 4.125 15.375 C2.03033254 16.72157194 0.8908672 17.42600391 -1.625 17.5 C-5.47872356 15.11436161 -7.56856937 12.93700865 -8.625 8.5 C-8.5625 5.375 -8.5625 5.375 -7.625 2.5 C-4.88513803 0.06456714 -3.64082822 -0.69349109 0 0 Z " fill="#ffffff" transform="translate(72.625,51.5)"/>
<path d="M0 0 C1.9375 0.69921875 1.9375 0.69921875 4 2 C5.11888312 5.29254669 5.23955018 8.54285542 5 12 C2.99284138 15.44084334 1.30688751 16.79540833 -2 19 C-4.84765625 19.37890625 -4.84765625 19.37890625 -8.0625 19.5625 C-12.18402923 19.70324708 -12.18402923 19.70324708 -16 21 C-16 19.68 -16 18.36 -16 17 C-12.37 16.67 -8.74 16.34 -5 16 C-7.31 15.34 -9.62 14.68 -12 14 C-12.33 12.68 -12.66 11.36 -13 10 C-12.01 10 -11.02 10 -10 10 C-10 10.99 -10 11.98 -10 13 C-6.55892288 12.53045985 -6.55892288 12.53045985 -3 11 C-0.71244785 7.01523175 0 4.6040947 0 0 Z " fill="#ffffff" transform="translate(195,86)"/>
<path d="M0 0 C2.90215168 0.30022259 3.85737849 0.83770656 5.8125 3.0625 C7.37895839 6.93742339 7.2727405 10.09032408 6 14 C4.53101675 16.42100724 3.05939605 17.99083313 1 20 C0.34 20 -0.32 20 -1 20 C-1.12375 19.030625 -1.2475 18.06125 -1.375 17.0625 C-1.58125 16.051875 -1.7875 15.04125 -2 14 C-4.29629994 12.85185003 -6.07698086 12.69230191 -8.625 12.4375 C-9.44226563 12.35371094 -10.25953125 12.26992187 -11.1015625 12.18359375 C-11.72804687 12.12300781 -12.35453125 12.06242188 -13 12 C-13 11.67 -13 11.34 -13 11 C-12.24074219 10.97421875 -11.48148438 10.9484375 -10.69921875 10.921875 C-9.20841797 10.83679688 -9.20841797 10.83679688 -7.6875 10.75 C-6.70136719 10.70359375 -5.71523437 10.6571875 -4.69921875 10.609375 C-1.90132552 10.22684421 -1.90132552 10.22684421 -0.125 8.15625 C1.43882293 5.15892271 0.80030349 3.20121394 0 0 Z " fill="#ffffff" transform="translate(183,144)"/>
<path d="M0 0 C0.763125 0.20625 1.52625 0.4125 2.3125 0.625 C2.83191098 5.81910977 2.83191098 5.81910977 2.3125 8.625 C-0.64864387 11.37955243 -2.52298363 12.52373771 -6.5625 12.875 C-7.26375 12.7925 -7.965 12.71 -8.6875 12.625 C-8.13878467 8.69254014 -7.47124039 5.19248077 -5.6875 1.625 C-2.6875 -0.375 -2.6875 -0.375 0 0 Z " fill="#ffffff" transform="translate(160.6875,54.375)"/>
<path d="M0 0 C4.75023129 -0.2317186 8.46815933 0.62426265 13 2 C23.78758287 4.17271035 35.12869368 3.13369302 46 2 C40.29272117 5.80485255 34.92742449 6.4155641 28.25 6.4375 C27.02156372 6.44330078 27.02156372 6.44330078 25.76831055 6.44921875 C16.73244858 6.28334386 8.51413282 3.84821648 0 1 C0 0.67 0 0.34 0 0 Z " fill="#ffffff" transform="translate(136,162)"/>
<path d="M0 0 C0.56332031 0.30808594 1.12664063 0.61617187 1.70703125 0.93359375 C4.05397022 2.02510029 6.15398446 2.56417215 8.6875 3.0625 C12.89591837 3.89591837 12.89591837 3.89591837 14 5 C16.07262076 5.08767112 18.14820294 5.10695873 20.22265625 5.09765625 C22.11274414 5.09282227 22.11274414 5.09282227 24.04101562 5.08789062 C25.38151109 5.07953403 26.72200588 5.07106907 28.0625 5.0625 C29.40689942 5.0574866 30.7513006 5.05292342 32.09570312 5.04882812 C35.39717941 5.03699488 38.69856803 5.02050971 42 5 C32.7781088 9.75513192 19.56367949 9.44281337 9.5703125 7.24609375 C5.08975399 5.55092695 2.70726705 4.01451438 0 0 Z " fill="#ffffff" transform="translate(35,160)"/>
<path d="M0 0 C7.5740227 0.89861286 7.5740227 0.89861286 10.19921875 1.5234375 C14.17888376 2.2005911 18.0954129 2.18426598 22.125 2.1875 C22.93582031 2.19974609 23.74664062 2.21199219 24.58203125 2.22460938 C25.75185547 2.22750977 25.75185547 2.22750977 26.9453125 2.23046875 C27.65187988 2.23457764 28.35844727 2.23868652 29.08642578 2.24291992 C31.32864629 2.10265227 31.32864629 2.10265227 34 0 C36.6875 -0.125 36.6875 -0.125 39 0 C36.84058464 2.96919612 34.21213132 3.88221997 30.69921875 4.6484375 C21.22150946 5.88287142 10.81555753 6.12401618 2 2 C1.34 1.34 0.68 0.68 0 0 Z " fill="#ffffff" transform="translate(52,111)"/>
<path d="M0 0 C0.66 0 1.32 0 2 0 C3.02611949 1.65071396 4.02308143 3.31970006 5 5 C5.8353125 5.7425 5.8353125 5.7425 6.6875 6.5 C8 8 8 8 8.1875 10.6875 C8.125625 11.450625 8.06375 12.21375 8 13 C7.01 13.33 6.02 13.66 5 14 C2.02113852 12.15594289 0.32350305 10.90118707 -0.875 7.5625 C-1.00710874 4.85427084 -0.67357337 2.61945201 0 0 Z " fill="#ffffff" transform="translate(66,55)"/>
<path d="M0 0 C0.66 0 1.32 0 2 0 C2.13277344 0.60328125 2.26554687 1.2065625 2.40234375 1.828125 C2.57894531 2.62734375 2.75554688 3.4265625 2.9375 4.25 C3.11152344 5.03890625 3.28554688 5.8278125 3.46484375 6.640625 C3.947556 8.76878703 4.46163178 10.88532842 5 13 C2.69 13.33 0.38 13.66 -2 14 C0.90092502 15.93395001 1.89674737 16.30131941 5.1875 16.625 C6.445625 16.74875 7.70375 16.8725 9 17 C7 19 7 19 4.28515625 19.08203125 C3.22167969 18.99308594 2.15820312 18.90414062 1.0625 18.8125 C0.00160156 18.73644531 -1.05929688 18.66039063 -2.15234375 18.58203125 C-5.16167261 17.9669558 -6.15413998 17.38611174 -8 15 C-7.34 14.67 -6.68 14.34 -6 14 C-5.34 14.33 -4.68 14.66 -4 15 C-4 14.01 -4 13.02 -4 12 C-2.02 11.67 -0.04 11.34 2 11 C1.505 9.948125 1.505 9.948125 1 8.875 C-0.09044562 5.73996884 -0.15322643 3.29436818 0 0 Z " fill="#ffffff" transform="translate(38,87)"/>
<path d="M0 0 C3.465 1.485 3.465 1.485 7 3 C7 3.66 7 4.32 7 5 C8.32 5 9.64 5 11 5 C11 6.32 11 7.64 11 9 C11.66 9.33 12.32 9.66 13 10 C11.741875 10.04125 10.48375 10.0825 9.1875 10.125 C8.47980469 10.14820312 7.77210938 10.17140625 7.04296875 10.1953125 C5 10 5 10 2 8 C1.01484622 5.37643538 0.57761071 2.75475877 0 0 Z " fill="#ffffff" transform="translate(141,58)"/>
<path d="M0 0 C1.82421875 1.63671875 1.82421875 1.63671875 3 3 C2.01 3.33 1.02 3.66 0 4 C-0.33 3.01 -0.66 2.02 -1 1 C-1.804375 1.020625 -2.60875 1.04125 -3.4375 1.0625 C-6 1 -6 1 -7 0 C-9.85877909 -0.23701239 -12.69883297 -0.42219182 -15.5625 -0.5625 C-16.36880859 -0.60568359 -17.17511719 -0.64886719 -18.00585938 -0.69335938 C-20.00368805 -0.79975262 -22.0018207 -0.90040888 -24 -1 C-17.55486976 -7.44513024 -7.06783109 -3.41402504 0 0 Z " fill="#ffffff" transform="translate(141,138)"/>
<path d="M0 0 C0.99 0 1.98 0 3 0 C3 0.99 3 1.98 3 3 C6.3 2.67 9.6 2.34 13 2 C13 2.99 13 3.98 13 5 C12.01 5.33 11.02 5.66 10 6 C10 6.66 10 7.32 10 8 C6.7 8 3.4 8 0 8 C0 7.67 0 7.34 0 7 C2.64 6.67 5.28 6.34 8 6 C5.69 5.34 3.38 4.68 1 4 C0.67 2.68 0.34 1.36 0 0 Z " fill="#ffffff" transform="translate(182,96)"/>
<path d="M0 0 C0 0.66 0 1.32 0 2 C-1.98 2.33 -3.96 2.66 -6 3 C-7.485 8.445 -7.485 8.445 -9 14 C-9.33 14 -9.66 14 -10 14 C-10.33 11.03 -10.66 8.06 -11 5 C-10.01 4.67 -9.02 4.34 -8 4 C-8.33 2.68 -8.66 1.36 -9 0 C-5.93109813 -1.53445094 -3.29905734 -0.54984289 0 0 Z " fill="#ffffff" transform="translate(195,82)"/>
<path d="M0 0 C0.66 0 1.32 0 2 0 C2 1.32 2 2.64 2 4 C1.34 4 0.68 4 0 4 C0.33 7.3 0.66 10.6 1 14 C-0.32 14 -1.64 14 -3 14 C-3.29341888 8.32723489 -3.00559652 5.00932754 0 0 Z " fill="#ffffff" transform="translate(29,84)"/>
<path d="M0 0 C7.42857143 -0.28571429 7.42857143 -0.28571429 11 2 C11 2.66 11 3.32 11 4 C12.32 4.33 13.64 4.66 15 5 C15 5.66 15 6.32 15 7 C9.76727367 5.36041242 4.84803364 3.61047965 0 1 C0 0.67 0 0.34 0 0 Z " fill="#ffffff" transform="translate(121,155)"/>
<path d="M0 0 C-0.33 0.66 -0.66 1.32 -1 2 C-1.61875 1.835 -2.2375 1.67 -2.875 1.5 C-9.25091623 0.4798534 -15.68040803 0.66955959 -22 2 C-16.20032166 -3.79967834 -7.02703866 -2.74225899 0 0 Z " fill="#ffffff" transform="translate(105,136)"/>
<path d="M0 0 C0.66 0.33 1.32 0.66 2 1 C2 2.32 2 3.64 2 5 C2.66 5.66 3.32 6.32 4 7 C2.35 7 0.7 7 -1 7 C-1 7.99 -1 8.98 -1 10 C-2.32 10 -3.64 10 -5 10 C-4.49701212 5.59885603 -2.91227269 3.28804981 0 0 Z " fill="#ffffff" transform="translate(157,56)"/>
<path d="M0 0 C4.72373854 1.62378512 8.94181834 4.10993018 13 7 C13 7.33 13 7.66 13 8 C11.02 8.33 9.04 8.66 7 9 C6.7525 8.195625 6.505 7.39125 6.25 6.5625 C5.8375 5.716875 5.425 4.87125 5 4 C2.97536745 3.34786708 2.97536745 3.34786708 1 3 C0.67 2.01 0.34 1.02 0 0 Z " fill="#ffffff" transform="translate(144,141)"/>
<path d="M0 0 C0.66 0.33 1.32 0.66 2 1 C1.67 1.99 1.34 2.98 1 4 C0.01 4.33 -0.98 4.66 -2 5 C-4.02851102 8.83163192 -4.49770926 12.73052871 -5 17 C-7 14 -7 14 -6.75 10.5625 C-5.6436345 5.30726386 -4.49542455 2.9969497 0 0 Z " fill="#ffffff" transform="translate(31,80)"/>
<path d="M0 0 C0.66 0.33 1.32 0.66 2 1 C1.67 1.99 1.34 2.98 1 4 C-0.32 4 -1.64 4 -3 4 C-3.185625 4.639375 -3.37125 5.27875 -3.5625 5.9375 C-5 8 -5 8 -8.625 8.75 C-9.73875 8.8325 -10.8525 8.915 -12 9 C-8.11327187 5.81994972 -4.10047867 2.89445553 0 0 Z " fill="#ffffff" transform="translate(77,140)"/>
<path d="M0 0 C0.66 0 1.32 0 2 0 C3.05771739 1.63064764 4.05273046 3.30280873 5 5 C5.99 6.485 5.99 6.485 7 8 C5.125 9.0625 5.125 9.0625 3 10 C2.34 9.67 1.68 9.34 1 9 C0.5859375 6.93359375 0.5859375 6.93359375 0.375 4.4375 C0.30023438 3.61121094 0.22546875 2.78492188 0.1484375 1.93359375 C0.09945312 1.29550781 0.05046875 0.65742187 0 0 Z " fill="#ffffff" transform="translate(66,55)"/>
<path d="M0 0 C1.485 0.99 1.485 0.99 3 2 C4.32567199 2.68177416 5.65753688 3.35191436 7 4 C7 5.65 7 7.3 7 9 C5.1875 8.8125 5.1875 8.8125 3 8 C0.85802506 5.09303401 0 3.64478912 0 0 Z " fill="#ffffff" transform="translate(70,53)"/>
<path d="M0 0 C0.78375 0.495 1.5675 0.99 2.375 1.5 C4.78552327 3.16537965 4.78552327 3.16537965 7 3 C8.34882408 2.36525925 9.6846659 1.70151152 11 1 C10.67 2.32 10.34 3.64 10 5 C7.69 5.66 5.38 6.32 3 7 C2.67 5.35 2.34 3.7 2 2 C1.34 2 0.68 2 0 2 C0 1.34 0 0.68 0 0 Z " fill="#ffffff" transform="translate(105,137)"/>
<path d="M0 0 C0.66 0 1.32 0 2 0 C0.72278474 4.99275057 -1.17330957 7.57611908 -5 11 C-4.67 8.69 -4.34 6.38 -4 4 C-3.34 4 -2.68 4 -2 4 C-1.34 2.68 -0.68 1.36 0 0 Z " fill="#ffffff" transform="translate(102,96)"/>
<path d="M0 0 C0.33 0 0.66 0 1 0 C1.25 3.3125 1.25 3.3125 1 7 C-1 8.9375 -1 8.9375 -3 10 C-3.433125 8.6078125 -3.433125 8.6078125 -3.875 7.1875 C-4.8875 3.90208333 -4.8875 3.90208333 -7 1 C-6.401875 1.309375 -5.80375 1.61875 -5.1875 1.9375 C-2.91043228 3.10209704 -2.91043228 3.10209704 0 4 C0 2.68 0 1.36 0 0 Z " fill="#ffffff" transform="translate(77,58)"/>
<path d="M0 0 C1.4540625 0.0309375 1.4540625 0.0309375 2.9375 0.0625 C-1.2314219 3.71030666 -6.51053736 6.0625 -12.0625 6.0625 C-12.0625 5.4025 -12.0625 4.7425 -12.0625 4.0625 C-11.49660156 3.85753906 -10.93070312 3.65257812 -10.34765625 3.44140625 C-9.61417969 3.17199219 -8.88070312 2.90257812 -8.125 2.625 C-7.39410156 2.35816406 -6.66320312 2.09132812 -5.91015625 1.81640625 C-1.53534061 0.03133348 -1.53534061 0.03133348 0 0 Z " fill="#ffffff" transform="translate(89.0625,158.9375)"/>
<path d="M0 0 C1.98 0.99 1.98 0.99 4 2 C4.25 9.625 4.25 9.625 2 13 C1.34 8.71 0.68 4.42 0 0 Z " fill="#ffffff" transform="translate(195,86)"/>
<path d="M0 0 C1.65 0 3.3 0 5 0 C4.21718695 1.33855056 3.42348123 2.67073644 2.625 4 C2.18414062 4.7425 1.74328125 5.485 1.2890625 6.25 C0.86367188 6.8275 0.43828125 7.405 0 8 C-0.66 8 -1.32 8 -2 8 C-1.47731534 5.23723823 -0.89130413 2.6739124 0 0 Z " fill="#ffffff" transform="translate(40,75)"/>
<path d="M0 0 C-9.41002278 3.44419134 -9.41002278 3.44419134 -14 3 C-14 2.34 -14 1.68 -14 1 C-12.41913952 0.63495397 -10.83516093 0.28339494 -9.25 -0.0625 C-8.36828125 -0.25972656 -7.4865625 -0.45695313 -6.578125 -0.66015625 C-4.01320972 -0.99825872 -2.42908361 -0.81158635 0 0 Z " fill="#ffffff" transform="translate(182,165)"/>
<path d="M0 0 C0 2.97 0 5.94 0 9 C-0.66 9 -1.32 9 -2 9 C-2 7.35 -2 5.7 -2 4 C-2.99 4.495 -2.99 4.495 -4 5 C-4.40729228 7.32156597 -4.74438677 9.6568787 -5 12 C-5.33 12 -5.66 12 -6 12 C-6.48979592 4.65306122 -6.48979592 4.65306122 -4.125 1.5 C-2 0 -2 0 0 0 Z " fill="#ffffff" transform="translate(38,144)"/>
<path d="M0 0 C-5.14285714 5.57142857 -5.14285714 5.57142857 -9 6 C-9 5.34 -9 4.68 -9 4 C-8.34 4 -7.68 4 -7 4 C-7.33 3.01 -7.66 2.02 -8 1 C-5.29120665 -0.35439668 -2.99066732 -0.06501451 0 0 Z " fill="#ffffff" transform="translate(179,107)"/>
<path d="M0 0 C2.99324263 1.0975223 3.84610901 1.67682892 5.25 4.625 C5.4975 5.40875 5.745 6.1925 6 7 C1.125 6.125 1.125 6.125 0 5 C-0.04063832 3.33382885 -0.042721 1.66611905 0 0 Z " fill="#ffffff" transform="translate(143,61)"/>
<path d="M0 0 C0.66 0 1.32 0 2 0 C2 1.98 2 3.96 2 6 C1.34 6 0.68 6 0 6 C0.33 7.98 0.66 9.96 1 12 C0.34 11.67 -0.32 11.34 -1 11 C-1.02688151 9.35425434 -1.04634123 7.70838587 -1.0625 6.0625 C-1.07410156 5.14597656 -1.08570313 4.22945312 -1.09765625 3.28515625 C-1 1 -1 1 0 0 Z " fill="#ffffff" transform="translate(34,148)"/>
<path d="M0 0 C0.33 1.32 0.66 2.64 1 4 C0.01 4.66 -0.98 5.32 -2 6 C-2.66 5.67 -3.32 5.34 -4 5 C-5.53668865 4.77532169 -7.07968054 4.59203195 -8.625 4.4375 C-9.44226563 4.35371094 -10.25953125 4.26992187 -11.1015625 4.18359375 C-11.72804687 4.12300781 -12.35453125 4.06242188 -13 4 C-13 3.67 -13 3.34 -13 3 C-12.22914063 2.95101562 -11.45828125 2.90203125 -10.6640625 2.8515625 C-9.66117188 2.77679688 -8.65828125 2.70203125 -7.625 2.625 C-6.62726563 2.55539063 -5.62953125 2.48578125 -4.6015625 2.4140625 C-1.84491121 2.23636036 -1.84491121 2.23636036 0 0 Z " fill="#ffffff" transform="translate(183,152)"/>
<path d="M0 0 C3.3 0 6.6 0 10 0 C10.33 0.99 10.66 1.98 11 3 C9.80375 2.79375 8.6075 2.5875 7.375 2.375 C3.4423982 1.86418162 0.6878757 2.43265283 -3 4 C-3 3.34 -3 2.68 -3 2 C-2.01 2 -1.02 2 0 2 C0 1.34 0 0.68 0 0 Z " fill="#ffffff" transform="translate(106,150)"/>
<path d="M0 0 C0.33 0 0.66 0 1 0 C1 1.98 1 3.96 1 6 C1.763125 6.103125 2.52625 6.20625 3.3125 6.3125 C6.17059424 7.04364039 7.15742885 7.76951913 9 10 C5.61976483 10 3.16531063 9.12544378 0 8 C0 5.36 0 2.72 0 0 Z " fill="#ffffff" transform="translate(188,73)"/>
<path d="M0 0 C0.66 1.32 1.32 2.64 2 4 C-1.79692186 6.82561627 -4.18569279 8.56638908 -9 8 C-7.68 7.67 -6.36 7.34 -5 7 C-5 6.01 -5 5.02 -5 4 C-3.35 4 -1.7 4 0 4 C0 2.68 0 1.36 0 0 Z " fill="#ffffff" transform="translate(161,59)"/>
<path d="M0 0 C0.99 0.66 1.98 1.32 3 2 C2.34 3.65 1.68 5.3 1 7 C0.34 7 -0.32 7 -1 7 C-1.33 7.66 -1.66 8.32 -2 9 C-1.125 1.125 -1.125 1.125 0 0 Z " fill="#ffffff" transform="translate(152,56)"/>
<path d="M0 0 C0.66 0 1.32 0 2 0 C2.1953125 6.0546875 2.1953125 6.0546875 2 8 C1.34 8.66 0.68 9.32 0 10 C-0.19412181 8.52168779 -0.38012131 7.04230684 -0.5625 5.5625 C-0.66691406 4.73878906 -0.77132812 3.91507812 -0.87890625 3.06640625 C-0.91886719 2.38449219 -0.95882812 1.70257813 -1 1 C-0.67 0.67 -0.34 0.34 0 0 Z " fill="#ffffff" transform="translate(185,86)"/>
<path d="M0 0 C1.9375 0.375 1.9375 0.375 4 1 C4.33 1.66 4.66 2.32 5 3 C4.34 3 3.68 3 3 3 C3 4.65 3 6.3 3 8 C2.34 8 1.68 8 1 8 C0.67 5.36 0.34 2.72 0 0 Z " fill="#ffffff" transform="translate(183,144)"/>
<path d="M0 0 C0.99 0 1.98 0 3 0 C4.35439668 2.70879335 4.06501451 5.00933268 4 8 C1.10067643 5.60490662 0.49831724 3.68754757 0 0 Z " fill="#ffffff" transform="translate(121,95)"/>
<path d="M0 0 C0.66 0 1.32 0 2 0 C2 1.32 2 2.64 2 4 C1.34 4 0.68 4 0 4 C0 4.99 0 5.98 0 7 C-0.66 7 -1.32 7 -2 7 C-1.125 1.125 -1.125 1.125 0 0 Z " fill="#ffffff" transform="translate(29,84)"/>
</svg>